<svg width="42" height="42" viewBox="0 0 42 42" fill="none" xmlns="http://www.w3.org/2000/svg">
<path fill-rule="evenodd" clip-rule="evenodd" d="M21 35C28.732 35 35 28.732 35 21C35 13.268 28.732 7 21 7C13.268 7 7 13.268 7 21C7 28.732 13.268 35 21 35ZM26.0867 15.7827L27.2814 14.8493C27.5604 14.6193 27.9003 14.4752 28.2597 14.4347C28.6191 14.3941 28.9825 14.4588 29.3058 14.621C29.629 14.7831 29.8983 15.0357 30.0807 15.3479C30.2631 15.6602 30.3509 16.0188 30.3334 16.38V27.1973C30.3334 27.534 30.1997 27.8568 29.9616 28.0949C29.7236 28.3329 29.4007 28.4667 29.0641 28.4667H26.0867V21.2613L21.0001 25.0787L15.9134 21.2613V28.4667H12.9361C12.5994 28.4667 12.2765 28.3329 12.0385 28.0949C11.8005 27.8568 11.6667 27.534 11.6667 27.1973V16.38C11.6413 16.0156 11.7234 15.6518 11.9028 15.3336C12.0822 15.0154 12.351 14.7569 12.6759 14.5899C13.0007 14.423 13.3675 14.3551 13.7306 14.3946C14.0937 14.434 14.4373 14.5792 14.7187 14.812L15.9134 15.7453L21.0001 19.5627L26.0867 15.7827Z" fill="white"/>
</svg>
