<svg width="47" height="42" viewBox="0 0 47 42" fill="none" xmlns="http://www.w3.org/2000/svg">
<path d="M23.3014 7.00001C31.0456 6.99026 37.3279 13.2464 37.3335 20.977C37.3405 28.6589 31.086 34.9944 23.4868 35C15.6283 35.0056 9.34187 28.8303 9.3335 21.0927C9.32514 13.2603 15.5196 7.00977 23.3014 7.00001ZM31.5306 20.9561C31.5306 19.8412 31.5515 18.7263 31.5264 17.6127C31.4679 15.093 29.666 12.9872 27.1603 12.8325C24.617 12.6764 22.05 12.6833 19.5053 12.8283C17.1042 12.9635 15.2618 14.9062 15.1545 17.3131C15.0472 19.7227 15.0361 22.1449 15.1476 24.5531C15.273 27.2722 17.3871 29.1717 20.1073 29.1898C22.2437 29.2038 24.3801 29.2024 26.5165 29.1912C29.3789 29.1759 31.4902 27.0826 31.5292 24.2298C31.5445 23.1386 31.532 22.0473 31.5306 20.9561Z" fill="white"/>
<path d="M29.9573 21.0008C29.9573 22.0906 29.9699 23.1819 29.9546 24.2717C29.9295 26.1322 28.5066 27.5872 26.6434 27.6109C24.4164 27.6388 22.1895 27.6416 19.9625 27.6095C18.169 27.583 16.7294 26.1587 16.6987 24.3692C16.6611 22.1199 16.6639 19.8677 16.6973 17.6184C16.7238 15.8178 18.1327 14.3893 19.9347 14.3558C22.2076 14.314 24.4819 14.3098 26.7549 14.3586C28.547 14.3976 29.9281 15.8638 29.9546 17.6602C29.9713 18.7737 29.9573 19.8872 29.9573 21.0008ZM23.3712 25.0173C25.6163 25.0229 27.4224 23.2571 27.4475 21.0342C27.4726 18.7737 25.6665 16.9383 23.4103 16.9313C21.1429 16.9243 19.3354 18.7277 19.3382 20.9966C19.341 23.2292 21.129 25.0117 23.3712 25.0173ZM27.6412 15.7035C27.0921 15.7202 26.688 16.1481 26.7033 16.6972C26.7186 17.2435 27.1465 17.6462 27.6969 17.6309C28.2335 17.6156 28.6613 17.1682 28.646 16.6414C28.6293 16.1104 28.1763 15.6868 27.6412 15.7035Z" fill="white"/>
<path d="M25.955 20.9687C25.9634 22.3833 24.8137 23.54 23.4006 23.54C21.9819 23.54 20.8127 22.3917 20.8057 20.991C20.7987 19.6016 21.9749 18.4225 23.3783 18.4156C24.7941 18.4086 25.9466 19.55 25.955 20.9687Z" fill="white"/>
</svg>
