<?xml version="1.0" standalone="no"?>
<!DOCTYPE svg PUBLIC "-//W3C//DTD SVG 20010904//EN"
 "http://www.w3.org/TR/2001/REC-SVG-20010904/DTD/svg10.dtd">
<svg version="1.0" xmlns="http://www.w3.org/2000/svg"
 width="1022.000000pt" height="1065.000000pt" viewBox="0 0 1022.000000 1065.000000"
 preserveAspectRatio="xMidYMid meet">

<g transform="translate(0.000000,1065.000000) scale(0.100000,-0.100000)"
fill="#000000" stroke="none">
<path d="M3919 7339 c-16 -6 -62 -55 -109 -115 -177 -227 -278 -404 -320 -560
-12 -43 -27 -84 -33 -90 -7 -6 -74 -25 -151 -42 -149 -34 -176 -32 -176 12 0
42 -37 144 -71 198 -18 29 -63 84 -99 122 -67 70 -258 234 -297 255 -47 24
-90 5 -121 -54 -5 -11 -47 -130 -92 -265 -72 -215 -83 -256 -87 -336 -5 -76
-2 -104 15 -160 26 -85 60 -137 253 -384 184 -237 312 -427 335 -498 18 -57
17 -79 -10 -277 -43 -318 -46 -716 -7 -853 24 -83 66 -172 81 -172 22 0 21 33
-4 180 -24 136 -25 161 -16 238 6 48 15 105 20 127 5 22 10 55 10 72 0 27 5
34 26 39 14 4 37 1 50 -5 27 -12 152 -113 274 -221 85 -76 108 -90 145 -90 85
0 248 157 351 337 44 77 104 241 104 286 0 12 4 28 8 35 9 13 48 -119 119
-403 l38 -150 30 0 c29 0 30 2 30 45 0 25 -24 146 -54 270 -49 209 -79 310
-160 531 -52 144 -51 171 10 482 29 149 54 274 55 275 5 8 64 -66 88 -109 14
-25 42 -93 62 -150 43 -126 72 -172 123 -199 129 -65 233 -18 326 148 22 40
43 72 47 72 12 0 28 -73 28 -130 0 -35 -11 -85 -29 -135 -15 -44 -42 -120 -60
-170 -64 -182 -101 -441 -101 -712 0 -152 7 -178 51 -171 l24 3 2 165 c0 91 8
214 17 274 9 60 16 124 16 143 0 24 7 37 25 49 44 28 99 -1 186 -99 40 -45
152 -162 248 -260 186 -188 209 -204 274 -186 43 12 177 135 262 241 110 138
171 275 182 408 9 110 31 131 57 53 25 -76 35 -170 50 -458 8 -148 18 -278 21
-287 9 -22 42 -33 59 -19 15 12 14 84 -4 411 -17 292 -47 434 -131 610 -53
111 -58 152 -23 181 14 11 20 9 40 -16 50 -65 130 -153 142 -159 8 -3 47 6 89
20 41 14 76 24 77 22 1 -1 9 -19 16 -38 8 -19 24 -52 37 -73 l24 -38 -36 -42
c-42 -49 -43 -80 -3 -85 19 -2 37 6 65 31 l37 35 47 -26 47 -27 -35 -68 c-77
-154 -156 -481 -151 -625 3 -75 4 -77 28 -77 29 0 28 -4 59 205 23 150 57 269
79 278 18 6 47 -27 142 -163 92 -133 211 -255 248 -255 37 0 195 140 294 261
42 52 86 105 97 119 l20 25 -5 -80 c-7 -99 -74 -443 -115 -588 -33 -117 -34
-160 -7 -165 22 -4 23 -2 88 210 96 313 101 341 109 566 5 132 11 206 19 214
9 9 29 -5 84 -58 72 -68 73 -68 76 -41 2 17 -9 48 -28 83 -18 30 -31 56 -29
57 2 1 18 9 34 18 17 8 40 22 52 29 20 13 25 12 53 -15 16 -16 40 -44 52 -62
19 -27 29 -33 53 -31 51 5 45 42 -18 117 l-53 65 32 49 c39 59 49 116 48 267
0 76 -5 116 -17 144 l-17 38 52 57 c67 74 144 230 158 326 6 39 8 96 5 128 -8
65 -32 92 -93 103 -81 15 -282 -49 -409 -132 -38 -24 -74 -44 -80 -44 -7 0
-47 11 -88 25 -41 14 -122 31 -179 37 l-104 12 -32 55 c-19 31 -72 95 -119
142 -47 47 -135 140 -194 207 -60 66 -123 131 -140 145 -90 68 -194 93 -311
76 -75 -11 -65 -13 -211 41 -53 20 -88 24 -305 31 -135 4 -279 13 -320 18
-171 23 -294 8 -432 -55 -79 -36 -83 -36 -157 -28 -42 4 -112 8 -156 8 -70 1
-87 -3 -133 -29 -30 -16 -73 -50 -95 -75 -46 -51 -85 -77 -96 -63 -5 4 -24 55
-45 113 -43 124 -102 236 -136 261 -33 24 -69 30 -101 18z m-39 -192 c0 -2
-31 -70 -70 -150 -99 -207 -131 -308 -138 -434 -3 -75 -1 -107 8 -118 37 -45
70 12 70 123 0 53 7 103 21 148 22 72 120 276 147 307 20 23 59 22 101 -4 44
-27 67 -54 87 -106 24 -61 13 -100 -46 -168 -77 -87 -93 -125 -98 -230 -4 -81
-1 -98 26 -173 l31 -82 -20 -58 c-33 -94 -67 -246 -99 -437 -81 -478 -112
-586 -197 -667 -111 -107 -327 -118 -433 -22 -30 27 -61 79 -124 208 -83 168
-123 233 -441 701 -237 350 -279 492 -195 662 20 41 30 72 26 87 -7 30 11 93
35 117 23 23 59 24 98 4 29 -14 127 -136 154 -190 28 -55 48 -157 52 -253 2
-64 7 -97 16 -103 17 -10 24 -5 43 35 23 49 21 162 -5 238 -11 33 -42 105 -70
159 -27 55 -47 99 -44 99 38 0 149 -111 184 -182 12 -26 29 -82 36 -125 10
-57 19 -82 35 -95 29 -23 40 -23 157 6 54 13 142 31 196 39 53 8 108 22 122
31 24 16 26 21 23 99 l-3 82 51 75 c28 41 84 129 124 195 83 135 118 185 131
185 5 0 9 -2 9 -3z m1354 -27 c48 -5 190 -12 315 -15 254 -7 311 -18 367 -68
48 -42 59 -71 80 -208 24 -165 16 -233 -40 -361 -60 -138 -83 -210 -155 -479
-59 -221 -98 -344 -129 -404 -29 -57 -120 -141 -184 -170 -155 -70 -396 -28
-503 86 -70 75 -129 229 -178 464 -14 66 -54 201 -89 300 -82 229 -92 270 -85
360 10 132 98 324 194 421 74 76 190 97 407 74z m-632 -70 c21 -6 44 -18 52
-26 17 -17 17 -19 -67 -215 -74 -174 -78 -219 -32 -404 25 -103 42 -140 79
-174 14 -13 28 -38 31 -55 8 -39 -24 -144 -76 -253 -21 -45 -39 -86 -39 -91 0
-6 -16 -24 -35 -41 -27 -24 -45 -31 -76 -31 -61 0 -89 34 -127 155 -20 64 -50
131 -83 185 -29 47 -74 121 -101 164 -78 128 -105 246 -74 319 17 41 87 128
233 288 168 186 208 208 315 179z m1685 -41 c40 -19 233 -192 233 -209 0 -4
-20 -15 -44 -24 -25 -9 -49 -23 -55 -29 -18 -22 -25 -267 -11 -381 l13 -105
-57 -63 c-74 -83 -142 -220 -157 -313 -5 -38 -13 -73 -17 -76 -4 -3 -33 -16
-65 -29 -49 -19 -60 -20 -75 -9 -30 24 -42 42 -80 119 -35 71 -37 80 -37 175
0 91 3 106 31 165 17 36 56 98 87 139 32 41 57 81 57 88 0 8 -5 35 -12 60 -9
36 -8 68 1 137 18 131 15 126 68 126 l46 0 -41 30 c-55 40 -93 99 -100 155 -4
43 -3 45 29 60 43 19 128 12 186 -16z m-3502 -110 c4 -6 5 -12 2 -15 -7 -7
-37 7 -37 17 0 13 27 11 35 -2z m3817 -219 c47 -26 59 -38 78 -81 19 -45 21
-62 15 -133 -9 -107 -2 -114 87 -93 150 37 277 29 422 -25 201 -74 185 -71
280 -65 88 6 90 7 130 46 43 42 116 80 154 81 28 0 29 -21 1 -103 -27 -82 -69
-154 -126 -217 -45 -50 -46 -50 -60 -30 -17 25 -60 24 -76 -1 -8 -13 -3 -28
20 -65 39 -61 71 -156 79 -232 9 -82 -18 -171 -73 -241 -2 -2 -23 10 -46 27
-48 34 -161 92 -220 113 -28 10 -42 10 -55 3 -21 -14 -22 -54 -2 -65 8 -4 55
-26 103 -48 90 -42 147 -76 147 -90 0 -4 -21 -17 -46 -29 l-46 -23 -74 71
c-73 69 -99 81 -122 58 -22 -22 -13 -42 45 -100 l57 -58 -57 0 c-52 0 -59 -3
-89 -36 -38 -42 -101 -81 -153 -95 -30 -8 -51 -6 -108 11 -110 33 -189 90
-261 189 -30 41 -44 50 -105 69 -39 13 -69 27 -66 32 8 13 104 47 155 55 85
13 101 26 78 68 -7 12 -11 30 -10 39 4 21 -32 40 -160 84 -69 24 -116 34 -158
34 l-60 0 6 43 c8 57 21 97 55 173 36 79 87 137 155 175 71 41 89 61 74 89 -9
16 -19 21 -43 18 l-32 -3 -12 80 c-14 99 -16 245 -3 279 13 35 52 34 122 -4z
m-84 -960 c34 -12 62 -25 62 -30 0 -4 -17 -10 -37 -14 -21 -3 -65 -18 -98 -32
-96 -41 -89 -42 -124 26 -17 35 -28 67 -24 73 9 16 150 1 221 -23z m-1559
-282 c217 -196 465 -179 739 52 41 34 76 59 80 56 3 -4 8 -43 10 -89 7 -127
-34 -262 -117 -389 -54 -83 -204 -255 -252 -289 -63 -45 -68 -42 -291 186
-111 114 -224 234 -250 266 -66 82 -91 154 -92 259 -1 127 4 133 63 63 26 -33
76 -84 110 -115z m1680 -143 c118 -82 183 -110 262 -110 60 0 76 5 168 50
l101 51 0 -36 c0 -39 -34 -117 -74 -170 -52 -68 -218 -241 -247 -255 -46 -24
-85 -2 -141 81 -82 123 -138 249 -152 345 -4 24 -9 56 -12 72 -4 16 -1 27 6
27 6 0 46 -25 89 -55z m-2725 -155 c0 -103 -4 -125 -33 -210 -53 -157 -155
-298 -273 -378 -57 -39 -81 -40 -133 -5 -209 139 -372 394 -399 623 l-7 55 37
-68 c73 -134 183 -204 339 -214 141 -9 264 38 340 131 35 43 105 179 105 206
1 11 4 10 13 -5 8 -13 12 -61 11 -135z"/>
<path d="M3055 6086 c-97 -45 -153 -140 -142 -243 7 -71 44 -126 112 -168 43
-27 57 -30 124 -30 85 0 119 14 174 69 94 94 96 248 5 333 -68 64 -185 81
-273 39z m151 -31 c82 -24 134 -92 134 -176 0 -120 -124 -222 -231 -190 -77
23 -149 113 -149 186 0 70 64 155 136 180 49 18 51 18 110 0z"/>
<path d="M3099 5951 c-49 -39 -21 -171 36 -171 70 0 89 114 30 173 -21 22 -37
21 -66 -2z"/>
<path d="M3652 6038 c-17 -17 -15 -109 4 -136 18 -26 56 -29 78 -6 38 37 2
154 -47 154 -13 0 -28 -5 -35 -12z"/>
<path d="M3410 5368 c-66 -34 -66 -63 -2 -116 84 -70 95 -142 19 -114 -43 16
-57 15 -57 -2 0 -23 81 -56 136 -56 57 0 148 39 165 72 16 30 6 32 -44 9 -49
-22 -72 -20 -87 10 -14 25 -15 23 40 84 28 30 50 64 50 75 0 30 -40 50 -111
56 -54 5 -71 2 -109 -18z"/>
<path d="M4874 6505 c-18 -44 -18 -88 1 -125 13 -26 21 -30 55 -30 29 0 43 6
54 22 27 38 16 139 -17 160 -7 4 -27 8 -45 8 -28 0 -35 -5 -48 -35z"/>
<path d="M5651 6514 c-32 -40 -29 -126 4 -159 62 -63 130 5 111 110 -14 72
-76 98 -115 49z"/>
<path d="M5190 5949 c-64 -29 -90 -56 -90 -95 0 -31 14 -55 98 -164 36 -49 41
-89 13 -114 -17 -16 -22 -16 -56 -2 -21 9 -47 16 -59 16 -19 -1 -17 -4 13 -30
51 -43 139 -63 257 -58 116 5 174 27 174 65 0 27 -28 31 -63 9 -37 -24 -110
-30 -145 -12 -75 39 -62 78 47 150 108 72 131 97 131 143 0 29 -7 46 -24 62
-55 52 -213 68 -296 30z"/>
<path d="M6812 6045 c-16 -36 -15 -100 2 -114 8 -7 27 -11 43 -9 23 2 31 11
43 45 21 61 6 97 -41 101 -30 3 -37 -1 -47 -23z"/>
<path d="M7080 5993 c-16 -21 -20 -38 -18 -77 3 -45 6 -52 32 -61 25 -8 31 -6
52 18 31 36 33 98 4 127 -27 27 -44 25 -70 -7z"/>
<path d="M6828 5679 c-24 -14 -22 -34 6 -72 34 -44 43 -85 22 -93 -10 -4 -25
1 -36 11 -22 20 -36 15 -27 -10 19 -48 136 -72 197 -40 41 21 38 26 -16 24
-31 -2 -48 2 -55 12 -13 21 -7 30 42 65 57 40 57 62 -1 92 -47 23 -103 28
-132 11z"/>
<path d="M5809 4531 c-163 -32 -299 -261 -316 -534 -6 -93 -5 -99 17 -122 28
-30 59 -32 87 -6 16 15 22 38 28 93 10 112 7 108 78 108 34 0 99 -3 144 -6
l81 -7 4 -97 c2 -79 7 -102 22 -119 24 -27 68 -27 92 0 17 20 19 38 18 238 0
172 -4 229 -17 281 -35 128 -124 193 -238 171z m85 -154 c15 -21 22 -47 24
-101 l4 -73 -123 -5 c-68 -3 -126 -4 -128 -2 -10 9 59 124 100 167 55 57 88
60 123 14z"/>
<path d="M5176 4511 c-14 -16 -20 -54 -30 -193 -12 -162 -15 -179 -44 -239
-35 -72 -46 -87 -82 -112 -55 -38 -110 -5 -153 90 -36 82 -51 186 -42 311 6
91 4 106 -11 123 -23 25 -46 24 -71 -3 -29 -33 -31 -38 -43 -116 -8 -51 -8
-98 0 -169 21 -193 77 -303 179 -355 89 -45 162 -36 245 31 21 17 42 31 46 31
3 0 11 -16 16 -37 5 -21 21 -45 37 -57 26 -19 30 -19 55 -5 l27 15 -3 135 c-1
74 -6 226 -10 338 -7 182 -10 205 -27 217 -27 20 -69 17 -89 -5z"/>
<path d="M6258 4489 c-10 -5 -18 -20 -18 -33 0 -13 8 -30 18 -38 17 -16 90
-41 150 -53 17 -4 32 -11 32 -16 0 -5 -18 -115 -40 -244 -22 -129 -40 -250
-40 -268 0 -64 70 -91 108 -42 22 28 30 66 71 338 16 103 31 191 35 194 4 4
46 -1 95 -10 114 -22 154 -22 174 1 37 41 11 73 -78 96 -104 26 -423 86 -457
86 -18 0 -41 -5 -50 -11z"/>
<path d="M4272 4404 c-134 -67 -184 -227 -132 -428 41 -163 147 -242 285 -215
98 20 142 38 154 65 23 52 5 204 -29 238 -13 14 -37 21 -77 24 -70 5 -109 -9
-125 -44 -11 -24 -10 -29 15 -50 16 -13 38 -24 51 -24 28 0 46 -18 46 -46 0
-18 -7 -23 -45 -28 -29 -5 -54 -3 -72 6 -80 38 -116 256 -56 336 11 15 31 34
45 41 24 14 29 13 67 -12 81 -54 131 -44 131 25 0 57 -102 137 -176 138 -16 0
-53 -12 -82 -26z"/>
<path d="M3633 4283 c-55 -19 -126 -97 -152 -168 -31 -83 -44 -205 -32 -309
14 -122 48 -234 77 -253 31 -20 63 -13 86 17 18 25 18 27 -1 110 -16 67 -18
87 -8 97 9 8 243 83 262 83 1 0 17 -38 34 -84 32 -85 49 -109 88 -120 26 -8
73 31 73 61 0 23 -86 273 -129 375 -37 87 -107 173 -158 194 -41 18 -86 17
-140 -3z m100 -133 c29 -23 77 -113 77 -144 0 -18 -18 -27 -108 -59 -59 -20
-111 -37 -116 -37 -14 0 2 103 25 165 19 52 57 95 84 95 7 0 24 -9 38 -20z"/>
<path d="M7025 4256 c-16 -7 -43 -27 -58 -43 -27 -29 -90 -177 -152 -357 -25
-76 -26 -82 -11 -113 17 -36 62 -62 149 -88 86 -25 147 -2 147 55 0 35 -22 53
-90 75 -30 10 -56 19 -58 20 -2 1 2 24 9 50 11 43 14 46 38 41 77 -18 91 -18
116 -2 46 31 31 77 -36 112 -27 13 -49 26 -49 28 0 2 6 19 14 38 22 51 39 62
77 49 91 -32 143 -3 115 64 -25 59 -148 101 -211 71z"/>
<path d="M7535 4124 c-79 -29 -135 -113 -135 -205 0 -20 14 -89 30 -152 17
-64 30 -139 30 -167 0 -43 -3 -52 -23 -61 -15 -7 -31 -7 -50 0 -24 10 -27 15
-27 61 0 70 -12 90 -55 90 -55 0 -96 -43 -102 -106 -8 -76 28 -139 99 -175
125 -64 267 -7 298 120 15 64 9 117 -31 273 -17 70 -27 128 -23 143 11 46 77
73 103 42 6 -8 15 -42 19 -76 10 -72 29 -97 66 -87 53 13 83 126 52 199 -26
64 -113 118 -186 116 -14 0 -43 -7 -65 -15z"/>
<path d="M3018 4030 c-15 -5 -40 -17 -55 -28 -16 -11 -75 -43 -132 -71 -58
-28 -110 -56 -118 -62 -32 -27 4 -89 52 -89 13 0 59 14 101 30 42 17 78 29 80
27 2 -2 -21 -93 -51 -202 -63 -227 -66 -265 -30 -300 40 -41 77 -33 227 43
264 136 309 174 273 229 -23 35 -49 29 -222 -51 -78 -36 -144 -66 -146 -66 -2
0 13 71 34 157 57 231 73 322 60 349 -14 31 -40 43 -73 34z"/>
</g>
</svg>
