<svg width="47" height="42" viewBox="0 0 47 42" fill="none" xmlns="http://www.w3.org/2000/svg">
<path d="M10.1572 34.3332C11.1427 30.9167 11.2871 28.1619 10.1572 25.2072C7.80462 19.0547 10.6757 12.1674 16.4238 8.85268C22.085 5.58898 29.2597 6.72288 33.6622 11.5794C38.1396 16.52 38.5652 23.7313 34.6991 29.1308C30.8451 34.5093 23.7483 36.5641 17.7874 33.7204C15.9743 32.8564 14.6157 33.4423 12.75 33.7204C12.1057 33.9453 11.386 34.0122 10.1572 34.3332ZM27.1499 28.7648C29.1818 28.6448 30.5244 28.1379 31.3216 26.779C31.6183 26.2721 31.876 25.2162 31.6363 25.0062C30.6203 24.1213 29.4785 23.2633 28.2348 22.8224C27.7492 22.6514 26.8921 23.6593 26.1549 24.0373C25.6664 24.2892 24.9831 24.6582 24.5755 24.4962C22.4836 23.6593 20.8533 22.1984 19.6995 20.2576C19.5137 19.9456 19.4537 19.2677 19.6485 19.0727C21.159 17.5579 20.5027 16.064 19.7204 14.5521C18.7554 12.6833 17.0981 12.5333 15.8544 14.2402C14.5567 16.022 14.7455 17.9028 15.6986 19.7537C17.4368 23.1373 19.9452 25.7891 23.3947 27.4329C24.7283 28.0689 26.1908 28.4319 27.1499 28.7648Z" fill="white"/>
</svg>
