<svg width="47" height="42" viewBox="0 0 47 42" fill="none" xmlns="http://www.w3.org/2000/svg">
<path d="M25.9096 34.9747C25.9096 31.7541 25.9096 28.5336 25.9096 25.2216C26.8222 25.2216 27.6973 25.2118 28.5737 25.2272C28.9123 25.2329 29.1533 25.1851 29.2077 24.776C29.3665 23.5966 29.5477 22.4199 29.7344 21.1463C28.4455 21.1463 27.2096 21.1463 25.9514 21.1463C25.9514 19.9669 25.8622 18.869 25.9779 17.7922C26.0782 16.8686 26.8724 16.3485 27.9132 16.3162C28.5375 16.2965 29.1631 16.312 29.85 16.312C29.85 15.141 29.85 14.0079 29.85 12.7863C27.9397 12.5277 26.0057 12.172 24.1428 13.0633C22.2478 13.9686 21.5525 15.6541 21.4675 17.6474C21.4201 18.7664 21.4592 19.8896 21.4592 21.0943C20.2859 21.0943 19.1601 21.0943 17.9729 21.0943C17.9729 22.4916 17.9729 23.806 17.9729 25.2033C19.1016 25.2033 20.226 25.2033 21.4034 25.2033C21.4034 28.5223 21.4034 31.7597 21.4034 35C15.9553 34.4279 9.35077 28.9665 9.67821 20.4955C9.97082 12.9761 16.3427 6.71351 24.2961 7.01012C31.7339 7.28846 37.9204 13.8814 37.6585 21.4233C37.4202 28.3058 31.4789 35.1785 25.9096 34.9747Z" fill="white"/>
</svg>
