<svg width="96" height="68" viewBox="0 0 96 68" fill="none" xmlns="http://www.w3.org/2000/svg">
<path d="M37.5051 15.1177C37.0571 16.7452 36.4624 18.2308 36.1414 19.8085C35.8801 21.09 35.7955 22.394 35.6188 23.683C35.5541 24.1459 35.5939 24.6635 35.7358 25.1089C36.2534 26.7314 35.7109 28.1 34.8822 29.4562C34.178 30.6059 33.7973 31.8775 33.8196 33.2412C33.8321 34.0475 33.7176 34.8214 33.429 35.5729C32.7546 37.3297 32.6899 39.1264 33.0656 40.9579C33.1751 41.4929 33.195 42.0379 33.1801 42.5953C33.1552 43.5086 33.1926 44.4243 33.8221 45.2182C34.4567 46.0169 34.2327 46.6839 33.2722 47.0123C32.5704 47.2537 31.8239 47.3085 31.0923 47.3259C30.398 47.3433 30.087 46.9949 30.0919 46.2807C30.0994 45.1186 30.2188 43.954 30.1741 42.7944C30.0745 40.1989 30.0322 37.596 29.4176 35.0503C29.206 34.1769 28.8701 34.0027 28.0141 34.2689C27.5238 34.4207 27.0137 34.5128 26.511 34.6248C25.3639 34.8786 25.1275 35.2743 25.3365 36.4339C25.6874 38.3973 26.3592 40.281 26.7649 42.232C26.8296 42.5381 26.9391 42.8541 26.9167 43.1552C26.8196 44.4119 27.4417 45.3451 28.2131 46.226C28.3948 46.4325 28.574 46.6465 28.7407 46.8655C29.1588 47.4229 29.0542 47.8211 28.3774 48.0351C27.4741 48.3213 26.5359 48.3884 25.5903 48.381C23.9678 48.3661 23.9753 48.376 23.8559 46.7635C23.6468 43.9092 22.9401 41.1669 21.9273 38.5043C21.5142 37.4193 21.3674 36.2995 21.3251 35.1523C21.2977 34.4033 21.1335 33.6916 20.5064 33.1889C20.1331 32.8878 19.73 33.0272 19.6329 33.4975C19.5931 33.6941 19.5682 33.9156 19.618 34.1047C19.9664 35.4285 19.3692 36.5061 18.7819 37.606C18.1722 38.7457 17.5426 39.8754 17.2067 41.1396C16.699 43.0482 16.8011 44.8996 17.6695 46.6913C17.8064 46.9725 17.9507 47.2537 18.0552 47.5498C18.2294 48.0401 18.0727 48.3735 17.5824 48.4581C16.9305 48.5726 16.2685 48.6721 15.6016 48.595C14.8227 48.5029 14.3997 47.8111 14.5689 46.8954C14.8053 45.6039 14.982 44.2999 14.8576 42.9885C14.7705 42.0653 14.7755 41.1445 14.763 40.2213C14.7556 39.8207 14.8402 39.4375 15.0716 39.1189C16.1118 37.6806 16.0197 36.195 15.3055 34.6696C15.1711 34.3859 15.0367 34.1047 14.8899 33.8285C14.4868 33.0645 14.1583 32.8978 13.3446 33.0969C12.506 33.3009 11.7047 33.6667 10.8138 33.6344C10.5252 33.6244 10.4157 33.8708 10.351 34.1122C10.1519 34.8786 9.96029 35.6475 9.76121 36.414C9.1814 38.6287 7.98196 40.5224 6.68298 42.3714C5.45369 44.1232 4.58273 46.0145 4.62752 48.2217C4.63747 48.7791 4.70466 49.339 4.89876 49.8517C5.46613 51.3572 4.59517 51.8101 3.52513 52.1311C2.68154 52.3849 1.79814 52.2879 0.934644 52.2481C0.354832 52.2207 0.0711451 51.7927 0.130868 51.081C0.237872 49.7919 0.436948 48.5228 0.962013 47.3209C1.74339 45.5367 2.24606 43.6753 2.45758 41.7343C2.52975 41.0699 2.74624 40.4254 3.02744 39.8306C3.75656 38.2828 3.88347 36.6006 4.2219 34.9632C4.34881 34.3535 4.51554 33.7488 4.66733 33.1441C4.95102 32.0194 5.22475 30.8946 5.35664 29.735C5.43378 29.0506 5.74484 28.4335 6.04594 27.8188C6.86962 26.1366 6.59838 24.7456 5.2123 23.4964C5.01572 23.3197 4.95351 23.1181 5.03563 22.9041C5.17996 22.5284 4.9983 22.3492 4.73701 22.1153C4.11987 21.5653 3.50771 20.998 3.05481 20.2888C2.88062 20.015 2.81343 19.7886 3.11951 19.5795C3.27131 19.475 3.34347 19.3506 3.28873 19.1565C3.01748 18.2084 3.05481 17.223 2.95029 16.2525C2.91794 15.9613 2.97518 15.7423 3.29868 15.6627C3.51767 15.608 3.64458 15.4636 3.66697 15.2322C3.7043 14.8291 3.75656 14.4259 3.77647 14.0228C3.83868 12.8084 3.983 11.609 4.34134 10.4419C4.44835 10.096 4.60761 9.74266 4.89876 9.57095C5.95884 8.94386 6.66557 7.95595 7.52657 7.12729C7.76547 6.89835 8.03422 6.69678 8.30297 6.50517C8.52196 6.35089 8.77827 6.28121 9.03209 6.43301C9.29587 6.58978 9.31329 6.85107 9.27845 7.11982C9.16398 7.97834 9.0321 8.82939 8.61155 9.61077C7.9969 10.753 7.81524 12.0171 7.63856 13.2788C7.43201 14.742 7.50418 16.2226 7.33496 17.6908C7.26778 18.2731 7.52159 18.8405 7.9521 19.2959C8.43735 19.811 9.00721 20.2191 9.58702 20.6147C10.1693 21.0129 10.779 20.9532 11.3638 20.6098C12.5433 19.9205 13.7403 19.276 15.0392 18.8156C16.8483 18.1736 18.6923 17.6609 20.5213 17.0936C21.7904 16.7004 23.0645 16.357 24.3685 16.1007C25.3041 15.9165 26.098 14.9162 26.1975 13.9482C26.2074 13.8461 26.2547 13.7018 26.1278 13.652C25.976 13.5923 25.9088 13.7416 25.8267 13.8387C25.3489 14.4011 24.8811 14.9759 24.1769 15.282C23.9728 15.3691 23.7638 15.4935 23.5597 15.3019C23.3781 15.1327 23.4403 14.9261 23.5249 14.737C23.7912 14.1423 23.5473 13.5724 23.4229 13.005C23.0197 11.1611 23.6866 9.34451 25.2469 8.30184C26.0432 7.76931 26.9664 7.45328 27.8797 7.17706C29.1115 6.80379 30.3607 6.46287 31.6223 6.21402C34.8822 5.57449 38.4407 7.57023 39.3863 10.5016C39.7024 11.4796 40.1229 12.4327 40.6704 13.3186C41.2079 14.1895 41.1656 15.1177 40.8172 16.036C40.531 16.7925 40.1752 17.5241 39.8766 18.2756C39.6999 18.721 39.5755 19.1864 39.6003 19.6791C39.6078 19.796 39.6675 19.9528 39.5182 20.0275C39.359 20.1071 39.242 19.9976 39.1176 19.9155C38.6074 19.582 38.3462 19.0918 38.2018 18.517C37.9704 17.6012 37.9107 16.6606 37.7639 15.7349C37.734 15.5532 37.7365 15.3666 37.52 15.1152" fill="#F7F7F7"/>
<path d="M95.9739 36.3144C96.0361 37.2675 95.8146 38.0564 95.3045 38.788C94.8466 39.4424 94.6326 40.2213 94.324 40.9529C94.0926 41.4979 93.8462 42.0304 93.4257 42.4634C93.132 42.767 93.1768 43.1453 93.244 43.5111C93.453 44.6533 93.2465 45.2679 92.4975 45.676C91.425 46.2608 90.3474 46.1638 89.581 45.4247C89.4242 45.2729 89.2898 44.9519 89.0062 45.1335C88.7474 45.3003 88.832 45.5989 88.9116 45.8452C89.2301 46.8356 89.7378 47.739 90.2081 48.6597C90.4594 49.1499 90.5689 49.6551 90.554 50.205C90.5415 50.6355 90.3698 50.9839 90.0414 51.1979C89.2326 51.7255 88.3592 52.0962 87.3737 52.1634C86.8163 52.2008 86.4306 52.0116 86.0324 51.5836C85.2386 50.7301 85.057 49.8492 85.5372 48.8015C85.8558 48.1072 85.9901 47.3657 86.0399 46.6042C86.0972 45.7233 85.8782 44.8971 85.4228 44.178C84.9151 43.3742 84.6563 42.5057 84.4921 41.5974C84.2184 40.077 83.1608 39.3628 81.812 38.9746C81.053 38.7556 80.2318 39.2259 79.8013 40.1093C79.4778 40.7762 79.02 41.254 78.3431 41.5551C78.1341 41.6472 77.9425 41.7268 77.7135 41.7243C77.0292 41.7219 76.3449 41.7343 75.6605 41.7219C75.026 41.7119 74.7771 41.3162 75.0882 40.7688C75.5162 40.0148 76.1433 39.4374 76.8923 39.0119C77.3054 38.7755 77.7658 38.6163 78.2187 38.4545C78.9602 38.1882 79.2489 37.7677 79.1469 37.0435C79.0722 36.5135 78.6343 36.2 77.9051 36.1776C76.3897 36.1278 74.9215 35.8217 73.5852 35.1274C72.8585 34.7492 72.0647 34.5128 71.3854 34.03C70.9748 33.7364 70.6413 33.9205 70.5791 34.4381C70.4099 35.8814 70.273 37.3297 70.1138 38.7755C70.0366 39.4723 69.9446 40.1641 69.855 40.8584C69.845 40.9305 69.8326 41.0151 69.7903 41.0674C69.0114 42.0006 68.9666 43.2647 68.3594 44.27C68.0185 44.8349 67.5954 45.3525 67.1998 45.8875C66.5826 46.7262 65.6694 47.0273 64.7039 47.1442C64.1464 47.2114 63.5592 47.2462 63.0017 47.0422C62.1109 46.7162 61.9466 46.0742 62.6011 45.4048C63.0814 44.9146 63.6811 44.5736 64.236 44.178C65.1443 43.5335 65.9431 42.7944 66.5055 41.799C67.1699 40.622 67.257 39.3877 66.9808 38.1111C66.6374 36.5284 66.2467 34.9557 65.8884 33.3781C65.6495 32.3229 65.5599 31.2355 65.2065 30.2053C64.9826 29.5558 64.6466 28.966 64.3206 28.3688C63.5691 26.9927 63.5069 25.512 63.8727 24.0637C64.2335 22.6378 64.6541 21.2244 65.0224 19.7985C65.3061 18.7036 65.9506 17.8202 66.5752 16.9293C67.0231 16.2873 67.4486 15.6602 67.5855 14.8714C67.6801 14.3363 67.5258 14.09 66.9833 13.9656C66.5752 13.871 66.1347 13.8735 65.7764 13.6072C65.1443 13.1394 64.9477 12.2411 65.3484 11.4647C66.0003 10.203 66.6797 8.9563 66.9783 7.55031C66.9982 7.46073 67.0405 7.37363 67.0455 7.28156C67.1127 5.94775 67.685 4.88766 68.7377 4.06896C68.9044 3.93956 69.2478 3.74048 69.0736 3.52647C68.9069 3.31993 68.5834 3.54638 68.3893 3.68822C67.9886 3.98435 67.6303 4.33274 67.2446 4.64628C67.0256 4.82296 66.7519 4.99218 66.4955 4.77817C66.2716 4.59154 66.4458 4.33771 66.5229 4.11375C66.8116 3.27514 66.8738 2.38427 67.1475 1.54068C67.4412 0.632392 68.0359 -0.0494443 69.1458 0.00281336C69.8525 0.0351633 70.5393 0.157099 71.2286 0.256637C72.0946 0.38106 72.9606 0.343731 73.8265 0.358661C74.6079 0.373592 75.2027 0.861333 75.8447 1.20474C77.3552 2.01598 78.8159 2.92178 80.4235 3.53643C81.3069 3.87237 81.8618 4.60149 82.5162 5.21614C82.8149 5.49733 83.1309 5.73374 83.5415 5.83825C83.9795 5.95023 84.2532 6.25134 84.4448 6.66691C84.935 7.72948 85.5547 8.6975 86.4605 9.47141C87.2493 10.1458 87.1896 10.6758 86.3012 11.2457C84.9674 12.1017 83.6286 12.9528 82.2873 13.7963C81.9713 13.9954 81.6428 14.1298 81.2446 13.983C80.9211 13.8635 80.8341 14.0701 80.9286 14.3388C81.9365 17.2528 83.0637 20.0847 85.7289 21.966C87.1523 22.9713 88.1228 24.3176 88.6802 25.9973C89.2077 27.5849 90.2728 28.8092 91.629 29.7772C92.1317 30.1356 92.5348 30.5636 92.7812 31.1509C93.1992 32.1438 93.9358 32.9177 94.747 33.5921C95.6429 34.3386 96.1132 35.217 95.9763 36.3169M80.9037 13.6371C80.9187 12.9801 81.0406 12.4327 81.3019 11.9176C81.3641 11.7956 81.3591 11.6314 81.3566 11.4871C81.3566 11.3378 81.3069 11.1735 81.1451 11.1362C80.9585 11.0914 80.8888 11.2631 80.8465 11.3975C80.7395 11.7459 80.6026 12.0992 80.5728 12.4576C80.5404 12.8383 80.4135 13.2763 80.9037 13.6346" fill="#F7F7F7"/>
<path d="M49.8233 39.7261C48.5741 39.8182 47.2502 39.4026 45.9214 39.0219C45.2022 38.8154 44.9683 38.9572 44.6921 39.6415C44.279 40.6668 43.8485 41.6871 43.4105 42.7023C42.8531 43.9914 41.1286 44.7429 39.6753 44.4716C39.1702 44.3771 39.0134 44.0635 39.205 43.5783C39.3842 43.1229 39.6579 42.7247 40.0685 42.451C42.007 41.152 42.8904 39.333 42.8606 37.0112C42.8456 35.7745 42.9178 34.5377 42.9676 33.3034C43.0074 32.2956 42.7909 31.3326 42.5371 30.3646C42.2086 29.1054 42.3903 27.8661 42.9128 26.6916C43.6867 24.9521 44.8464 23.4765 46.1528 22.1128C47.3995 20.8114 47.5563 19.8657 46.7948 18.2109C46.3419 17.228 45.7945 16.4118 44.6199 16.1231C43.9082 15.9464 43.4951 15.2795 43.1666 14.6176C42.4276 13.127 41.9871 11.5244 41.4073 9.97162C41.151 9.2848 41.4546 8.91651 42.1862 9.03596C43.5424 9.25494 44.8538 9.62323 46.0035 10.4195C46.4589 10.7356 46.9118 11.0541 47.3448 11.3975C48.2954 12.1515 49.3629 12.266 50.4852 11.9624C51.9335 11.5717 53.3718 11.5692 54.7952 12.0097C55.5467 12.2411 56.0967 12.0022 56.6516 11.512C57.6993 10.5838 58.7793 9.673 60.1131 9.1778C60.7775 8.93144 61.4419 8.64278 62.1884 8.67264C62.7135 8.69255 62.925 8.91651 62.9026 9.42416C62.8777 10.0065 62.6886 10.5465 62.4622 11.069C61.753 12.7139 60.9542 14.3115 59.8518 15.7374C59.5457 16.1306 59.15 16.4118 58.6623 16.4914C58.177 16.571 57.9431 16.9169 57.8287 17.2902C57.4753 18.4398 56.9378 19.5124 56.5421 20.6421C56.4102 21.0204 56.1091 21.2717 55.8205 21.533C55.2456 22.0556 55.161 22.5707 55.6139 23.1853C56.3007 24.116 56.8358 25.1189 57.1617 26.2262C57.5649 27.5924 58.0899 29.0531 57.4927 30.3869C56.9776 31.5366 57.0622 32.4001 57.6968 33.3806C58.1248 34.0425 58.2318 34.8214 58.2417 35.6077C58.2592 37.0411 59.0629 38.1559 60.4042 38.6412C61.2528 38.9473 62.1038 39.2583 62.9449 39.5818C63.2212 39.6888 63.475 39.8157 63.4625 40.2064C63.4526 40.5747 63.2336 40.6991 62.9499 40.8385C61.4917 41.5576 60.6406 40.9903 59.7547 40.2462C59.0181 39.6266 58.2144 39.1065 57.2837 38.8154C56.577 38.5939 56.353 38.7631 56.46 39.4972C56.6417 40.734 56.8009 41.9757 57.2264 43.1677C57.3857 43.6106 57.6644 43.9764 57.8685 44.3845C58.3438 45.3351 58.0775 45.8826 57.0423 46.0294C56.4177 46.119 55.7831 46.0767 55.1735 45.9025C54.4643 45.7009 54.0537 44.8275 54.2079 43.9416C54.3199 43.3021 54.3747 42.6526 54.1482 42.0255C53.7277 40.8509 52.1649 39.766 50.8684 39.7261C50.5723 39.7162 50.2762 39.7261 49.8183 39.7261" fill="#F7F7F7"/>
<path d="M79.2444 63.9091C78.4057 64.0036 77.6219 63.8494 76.8579 63.6403C75.0563 63.1476 74.0808 61.8586 74.0484 59.9425C74.0335 59.1686 74.0186 58.3947 74.133 57.6183C74.2475 56.8294 74.1604 56.0455 73.9315 55.2667C73.6528 54.321 73.8792 53.7786 74.7203 53.256C75.9919 52.4671 77.4228 52.2606 78.8686 52.3452C80.0581 52.4174 81.2575 52.5393 82.4147 52.8703C82.8452 52.9922 83.4275 53.0519 83.4075 53.6367C83.3901 54.1867 82.7979 54.1344 82.4171 54.2315C81.362 54.5052 80.2646 54.5251 79.1971 54.7167C78.881 54.7739 78.5899 54.8735 78.3933 55.1522C78.0673 55.6126 78.2589 56.0381 78.8288 56.0829C79.8764 56.1625 80.9241 56.2322 81.9692 56.3068C82.0812 56.3143 82.1982 56.2994 82.2977 56.3367C82.5316 56.4263 82.8128 56.4736 82.8676 56.7921C82.9223 57.1031 82.7954 57.3221 82.5266 57.4839C81.703 57.9816 80.832 58.3747 79.9312 58.7082C79.222 58.9695 78.5202 59.2432 77.816 59.5145C77.5298 59.624 77.3108 59.823 77.1466 60.0744C76.9973 60.3008 76.9575 60.5422 77.0769 60.8109C77.2063 61.0946 77.4452 61.0921 77.6866 61.0772C78.5127 61.0225 79.3414 60.9627 80.1651 60.8931C81.26 60.801 82.34 60.9876 83.4125 61.1394C83.8978 61.2091 84.2063 61.6272 84.2188 62.1945C84.2312 62.7569 83.9052 63.073 83.4449 63.2148C82.6909 63.4487 81.917 63.6478 81.1406 63.7871C80.5085 63.9016 79.864 64.0036 79.2468 63.9116" fill="#F7F7F7"/>
<path d="M30.0074 59.0788C30.4254 59.0539 30.9181 59.1385 31.4009 58.9021C31.7244 58.7429 32.1002 58.6458 32.1076 58.2277C32.1176 57.7923 31.8065 57.4762 31.4606 57.2821C31.0973 57.0781 30.6768 56.9636 30.2736 56.8367C29.6888 56.6501 29.5246 56.2892 29.8182 55.7492C30.2338 54.9903 30.9903 54.7862 31.7468 54.6021C33.1926 54.2512 34.8698 54.9504 35.482 55.9334C35.91 56.6177 35.8751 57.3493 35.7607 58.076C35.6363 58.8723 35.4297 59.6586 35.2406 60.445C34.9868 61.5125 33.9665 62.1297 33.006 61.6071C31.9235 61.0173 30.8211 61.0696 29.6814 61.0372C27.5712 60.975 25.8442 60.1016 24.5427 58.4343C23.8857 57.5932 23.8708 56.1524 24.4556 55.152C25.0329 54.1641 25.8243 53.3678 26.7201 52.6859C28.151 51.591 29.7635 50.9067 31.5726 50.735C32.237 50.6703 32.8567 50.8445 33.424 51.1555C33.8023 51.3646 33.9988 51.7428 33.9093 52.1907C33.8047 52.7183 33.3942 52.9721 32.9338 53.1563C32.5282 53.318 32.0977 53.2608 31.6746 53.2807C29.6938 53.3777 28.3028 54.4826 27.2676 56.0379C26.2597 57.5509 27.7702 59.0489 29.1538 59.0813C29.4126 59.0863 29.6714 59.0813 30.0049 59.0813" fill="#F7F7F7"/>
<path d="M37.2912 52.3749C37.3086 51.7752 37.2663 51.3521 37.3982 50.9341C37.5425 50.4812 37.8063 50.1875 38.304 50.2049C39.0605 50.2298 39.812 50.3045 40.5336 50.5459C41.33 50.8146 41.7007 51.4243 41.5191 52.3376C41.2951 53.4723 40.8945 54.5697 40.6481 55.702C40.3744 56.9561 40.6506 57.7101 41.651 58.3173C42.4473 58.8001 43.2286 58.4691 43.5248 57.5907C43.9752 56.2519 44.1568 54.8733 44.1817 53.4673C44.1967 52.5516 44.2564 51.6333 44.3111 50.7176C44.3509 50.0507 45.0228 49.6052 45.6773 49.8242C46.7722 50.19 47.4615 50.9963 47.6357 52.0937C47.8174 53.2508 48.0538 54.4129 48.0339 55.6024C48.004 57.4638 47.3147 59.0141 45.8863 60.2036C44.9531 60.98 43.7985 61.087 42.6812 60.8879C41.1558 60.6167 39.8966 59.7855 39.0306 58.4865C38.08 57.0582 37.54 55.4656 37.3957 53.7435C37.3534 53.2284 37.2613 52.7208 37.2887 52.3774" fill="#F7F7F7"/>
<path d="M49.3378 59.6537C48.8998 58.4965 49.8479 57.745 50.2311 56.8566C51.0996 54.8509 52.1945 52.9398 52.8341 50.8346C53.0207 50.2199 53.384 49.889 54.0086 49.7421C55.748 49.3365 56.7932 49.9984 57.5796 51.4841C58.0125 52.2978 58.3112 53.1663 58.5053 54.0745C58.6745 54.8559 58.9756 55.5826 59.5255 56.1897C59.7545 56.4436 59.7644 56.7248 59.5081 56.9736C59.2195 57.2523 59.2518 57.546 59.4011 57.8744C59.645 58.4119 59.8888 58.9494 60.0954 59.5019C60.5334 60.6739 60.078 61.3707 58.6795 61.306C57.4029 61.2463 56.8878 60.6565 56.7385 59.6835C56.6787 59.2879 56.7011 58.8748 56.609 58.4791C56.5643 58.2825 56.5419 58.0735 56.4622 57.8918C56.3503 57.633 56.1537 57.322 55.8625 57.4116C55.2628 57.5957 54.6631 57.4738 54.0683 57.5211C53.1849 57.5932 52.737 58.1432 52.4782 58.9171C52.1995 59.7532 51.667 60.3131 50.7637 60.435C50.3157 60.4948 49.8902 60.3629 49.502 60.1364C49.3179 60.0294 49.2606 59.8652 49.3378 59.6587M55.0786 53.8207C54.8696 54.0994 54.6606 54.3508 54.7004 54.7066C54.7377 55.0301 54.9318 55.2889 55.2628 55.2715C55.5241 55.2591 55.7505 55.0475 55.6759 54.739C55.5913 54.3931 55.4743 54.0422 55.0786 53.8207" fill="#F7F7F7"/>
<path d="M3.57506 58.4818C2.7887 58.3748 1.863 58.758 0.914895 58.5067C0.367433 58.3623 0.0787706 58.0612 0.0115822 57.5362C-0.0580947 56.9912 0.188261 56.6378 0.705861 56.4164C2.14419 55.7992 3.64473 55.7893 5.15523 55.9286C6.27255 56.0306 7.37493 56.2098 8.46488 56.5134C10.1545 56.9812 10.386 57.4142 9.58967 58.9596C9.18903 59.736 8.60921 60.378 8.01696 61.01C7.35005 61.7193 6.70056 62.4434 6.25264 63.3144C5.91172 63.9763 6.14813 64.3272 6.90462 64.2898C7.45457 64.2625 8.00452 64.2003 8.55198 64.1331C9.04967 64.0709 9.54985 64.0534 10.0451 64.1007C10.3511 64.1281 10.7344 64.1878 10.7941 64.5561C10.8563 64.9567 10.8961 65.4072 10.4333 65.6684C9.50257 66.1935 8.55944 66.6887 7.55659 67.0719C6.20785 67.5846 4.84666 67.7687 3.44317 67.3706C2.00235 66.96 1.23093 65.6684 2.1417 64.0933C3.04004 62.5429 4.11754 61.1146 5.0756 59.6041C5.23486 59.3552 5.41403 59.1238 5.21495 58.7953C5.02583 58.4818 4.74463 58.4793 4.44353 58.4818C4.20215 58.4843 3.96326 58.4818 3.57257 58.4818" fill="#F7F7F7"/>
<path d="M92.2887 57.9316C91.4277 57.9615 90.6114 57.8246 89.845 58.2402C89.4444 58.4567 89.1831 58.7255 89.2204 59.1833C89.2577 59.6561 89.626 59.6984 90.0142 59.7781C90.5866 59.8925 91.1564 59.8502 91.7263 59.8552C92.5674 59.8602 93.3736 60.017 94.155 60.3131C95.3171 60.756 95.7899 61.6693 95.4888 62.8712C94.9712 64.9391 93.3911 66.161 91.2609 66.2779C90.0441 66.3451 88.8372 66.4098 87.6253 66.258C87.0032 66.1784 86.4458 65.9445 86.0103 65.4866C85.423 64.8695 85.6171 64.0756 86.4035 63.7944C87.1973 63.5108 88.0259 63.4809 88.8521 63.4137C89.4021 63.3689 89.957 63.354 90.5045 63.2868C90.7906 63.252 91.1515 63.1798 91.2037 62.8488C91.2535 62.5303 90.9698 62.3412 90.6961 62.1969C90.1362 61.9032 89.529 61.7514 88.9218 61.5922C87.1052 61.1194 86.4358 59.3749 87.145 57.7873C87.5581 56.8691 88.4191 56.4784 89.2627 56.13C90.4273 55.6497 91.6691 55.4681 92.9307 55.4108C93.5727 55.381 94.2073 55.3511 94.8518 55.4108C95.2773 55.4506 95.6705 55.4482 95.8273 55.9434C95.9666 56.3838 95.7725 57.0831 95.4341 57.3668C94.9065 57.8047 94.2695 57.8943 93.6225 57.9341C93.1621 57.9615 92.6993 57.9391 92.2912 57.9391" fill="#F7F7F7"/>
<path d="M17.7916 52.6512C18.9488 52.5119 19.7525 53.1215 20.3075 54.0199C21.1237 55.3338 21.8677 56.7 22.1091 58.2627C22.1713 58.6609 22.1539 59.0715 22.1589 59.4771C22.1638 60.0619 22.3555 60.5471 22.8084 60.9403C23.1617 61.2464 23.5275 61.6147 23.3359 62.1223C23.1667 62.5677 22.7885 62.7818 22.2634 62.8539C20.9171 63.0406 20.3249 62.63 20.193 61.2912C20.1183 60.5222 19.7351 60.256 19.001 60.4799C18.6029 60.6019 18.2196 60.5869 17.8041 60.5247C16.8684 60.3854 15.7013 60.8482 15.4699 61.983C15.3355 62.6399 15.1713 63.3168 14.584 63.7796C14.3451 63.9687 14.1037 64.1081 13.8176 64.2002C13.4891 64.3097 13.173 64.2599 12.9342 64.0459C12.6878 63.8244 12.7475 63.5158 12.8545 63.2197C13.285 62.0078 13.7379 60.8009 14.1211 59.5741C14.5492 58.2055 14.9 56.8119 15.3007 55.4333C15.4798 54.8162 15.6615 54.1941 15.9178 53.6068C16.2662 52.8055 16.953 52.5567 17.7916 52.6487M18.4337 58.524C19.1752 58.5364 19.4315 57.9467 18.996 57.1852C18.8368 56.9065 18.7124 56.471 18.3714 56.481C18.1027 56.4884 18.0604 56.9339 17.921 57.1852C17.8339 57.3445 17.7568 57.5211 17.7319 57.6978C17.6548 58.2179 17.921 58.514 18.4337 58.524Z" fill="#F7F7F7"/>
<path d="M68.7828 55.1571C68.9396 57.1528 68.4643 58.9719 68.31 60.8183C68.2602 61.418 67.8646 61.8933 67.2748 62.1621C66.8119 62.3736 66.476 62.1198 66.1774 61.8585C65.6349 61.3857 65.4408 60.7412 65.3786 60.0369C65.2318 58.3946 65.279 56.7497 65.2716 55.1073C65.2666 54.0945 64.9157 53.8133 63.9104 53.9104C63.0768 53.99 62.2556 53.8457 61.4866 53.5097C61.086 53.3355 60.7923 53.0294 60.7326 52.5566C60.6555 51.9395 61.0387 51.5762 61.4443 51.2129C61.9893 50.7226 62.6811 50.7351 63.3107 50.7824C65.1795 50.9217 67.011 50.429 68.8749 50.531C69.823 50.5833 70.7362 50.7475 71.5873 51.1954C72.0402 51.4343 72.3363 51.7952 72.5055 52.2555C72.6922 52.7657 72.4508 53.2111 71.9406 53.3853C71.3658 53.5819 70.8159 53.7362 70.1689 53.654C69.2407 53.5321 68.7778 54.1443 68.7853 55.1571" fill="#F7F7F7"/>
</svg>
