<?xml version="1.0" standalone="no"?>
<!DOCTYPE svg PUBLIC "-//W3C//DTD SVG 20010904//EN"
 "http://www.w3.org/TR/2001/REC-SVG-20010904/DTD/svg10.dtd">
<svg version="1.0" xmlns="http://www.w3.org/2000/svg"
 width="96.000000pt" height="100.000000pt" viewBox="0 0 96.000000 100.000000"
 preserveAspectRatio="xMidYMid meet">

<g transform="translate(0.000000,100.000000) scale(0.100000,-0.100000)"
fill="#000000" stroke="none">
<path d="M347 660 c-20 -33 -17 -39 7 -14 16 16 41 10 31 -7 -10 -15 2 -10 16
8 8 9 9 14 3 10 -7 -4 -14 2 -17 13 -7 28 -20 25 -40 -10z"/>
<path d="M230 635 c-10 -30 -9 -40 4 -60 9 -14 19 -25 22 -25 3 0 -2 10 -10
22 -18 25 -19 37 -7 57 7 10 13 11 31 1 29 -16 24 7 -7 27 -20 13 -22 12 -33
-22z"/>
<path d="M436 655 c-3 -9 -6 -22 -5 -28 0 -7 5 -1 10 12 5 13 8 26 5 28 -2 2
-6 -3 -10 -12z"/>
<path d="M557 643 c2 -16 -2 -49 -10 -75 -13 -42 -13 -49 1 -60 13 -11 15 -10
10 10 -4 12 -1 43 6 70 12 47 11 82 -3 82 -4 0 -6 -12 -4 -27z"/>
<path d="M603 616 c-1 -36 0 -37 6 -11 6 27 8 28 17 11 6 -10 15 -17 20 -15 5
2 -2 16 -16 30 l-25 26 -2 -41z"/>
<path d="M694 604 c-18 -15 -18 -15 6 -10 14 3 29 6 33 6 5 0 5 5 2 10 -9 14
-18 13 -41 -6z"/>
<path d="M374 575 c-4 -9 -4 -19 0 -22 3 -4 6 -1 6 6 0 7 5 9 10 6 6 -3 10 -2
10 4 0 18 -20 23 -26 6z"/>
<path d="M436 565 c-3 -8 -1 -15 4 -15 6 0 10 7 10 15 0 8 -2 15 -4 15 -2 0
-6 -7 -10 -15z"/>
<path d="M715 569 c-4 -6 -5 -12 -2 -15 2 -3 7 2 10 11 7 17 1 20 -8 4z"/>
<path d="M484 544 c3 -9 6 -19 6 -22 0 -9 20 21 20 31 0 4 -7 7 -16 7 -11 0
-14 -5 -10 -16z"/>
<path d="M577 544 c-3 -4 1 -13 9 -22 10 -9 13 -25 10 -41 -3 -14 -3 -20 0
-13 3 6 10 10 15 6 5 -3 9 2 9 11 0 10 5 13 13 9 6 -4 4 2 -6 13 -9 11 -14 23
-10 27 4 4 -1 4 -11 0 -14 -5 -17 -4 -12 4 7 12 -6 17 -17 6z"/>
<path d="M436 518 c-3 -13 -6 -30 -6 -38 1 -13 2 -13 9 0 16 27 22 60 13 60
-5 0 -12 -10 -16 -22z"/>
<path d="M361 515 c-1 -12 -5 -26 -11 -33 -7 -9 -7 -9 2 -2 9 7 16 4 25 -12
17 -31 16 -1 -2 37 -11 24 -14 26 -14 10z"/>
<path d="M690 510 c-14 -10 -21 -22 -17 -27 5 -4 14 0 21 9 7 10 16 15 19 11
4 -3 7 1 7 10 0 21 1 21 -30 -3z"/>
<path d="M280 486 c0 -13 -3 -33 -7 -43 -6 -16 -5 -16 10 -5 9 8 13 20 10 29
-5 11 -3 14 6 8 10 -6 11 -3 2 14 -15 27 -21 27 -21 -3z"/>
<path d="M320 489 c0 -5 5 -7 10 -4 6 3 10 8 10 11 0 2 -4 4 -10 4 -5 0 -10
-5 -10 -11z"/>
<path d="M561 454 c0 -11 3 -14 6 -6 3 7 2 16 -1 19 -3 4 -6 -2 -5 -13z"/>
<path d="M531 417 c-6 -6 -11 -22 -10 -36 0 -15 3 -20 6 -13 2 6 11 12 18 12
7 0 16 -6 18 -12 3 -7 6 1 6 18 1 34 -19 50 -38 31z m29 -11 c0 -3 -4 -8 -10
-11 -5 -3 -10 -1 -10 4 0 6 5 11 10 11 6 0 10 -2 10 -4z"/>
<path d="M441 408 c-2 -31 11 -48 35 -48 20 0 24 5 24 30 0 17 -4 30 -10 30
-5 0 -10 -9 -10 -19 0 -32 -17 -34 -28 -4 -6 16 -11 21 -11 11z"/>
<path d="M598 388 l5 -33 9 28 c6 15 14 24 20 21 7 -4 8 -2 4 4 -4 7 -15 12
-25 12 -14 0 -17 -6 -13 -32z"/>
<path d="M392 383 c3 -29 28 -38 36 -14 3 10 0 12 -12 8 -10 -4 -16 -1 -16 7
0 8 6 17 13 19 7 3 4 6 -6 6 -14 1 -18 -5 -15 -26z"/>
<path d="M325 380 c-3 -11 -2 -28 4 -37 10 -17 10 -17 11 0 0 20 26 23 33 5 4
-10 6 -10 6 0 1 21 -19 52 -34 52 -7 0 -16 -9 -20 -20z"/>
<path d="M645 379 c-11 -34 9 -42 22 -9 9 24 9 30 -2 30 -8 0 -17 -9 -20 -21z"/>
<path d="M700 358 c0 -25 -3 -29 -10 -18 -8 13 -10 12 -10 -2 0 -10 7 -18 15
-18 9 0 15 10 15 26 0 16 4 23 11 18 7 -4 10 -1 7 6 -9 29 -28 21 -28 -12z"/>
<path d="M274 374 c-11 -5 -7 -64 5 -64 4 0 16 7 27 16 19 15 19 15 -2 9 -18
-5 -21 -2 -16 20 2 14 3 25 1 24 -2 0 -9 -3 -15 -5z"/>
</g>
</svg>
